<svg height="300px" width="300px" fill="#000000" xmlns="http://www.w3.org/2000/svg" xmlns:xlink="http://www.w3.org/1999/xlink" version="1.1" x="0px" y="0px" viewBox="0 0 100 100" enable-background="new 0 0 100 100" xml:space="preserve"><path d="M32.566,42.412h5.982c2.188,0,3.961-1.748,4.022-3.921c0.001-0.038,0.011-0.074,0.011-0.112c0-0.021-0.007-0.04-0.007-0.061  h-0.021c-0.005-0.065,0.004-0.131-0.017-0.194L36.602,20.8h11.383v30.02h-5.152c-2.227,0-4.034,1.806-4.034,4.033  c0,0.038,0.01,0.073,0.012,0.112H61.19c0-0.039,0.011-0.074,0.011-0.112c0-2.227-1.806-4.033-4.032-4.033h-5.153V20.8h11.28  l-5.832,17.327c-0.021,0.062-0.012,0.127-0.017,0.191h-0.023c-0.001,0.021-0.006,0.04-0.006,0.061c0,2.227,1.805,4.033,4.032,4.033  h5.983c2.188,0,3.961-1.748,4.021-3.921c0.002-0.038,0.012-0.074,0.012-0.112c0-0.021-0.005-0.04-0.007-0.061H71.44  c-0.005-0.065,0.003-0.131-0.018-0.194L65.488,20.8h1.091c0.743,0,1.345-0.603,1.345-1.344c0-0.743-0.602-1.344-1.345-1.344H52.017  v-4.146c0-1.114-0.904-2.017-2.016-2.017c-1.115,0-2.016,0.902-2.016,2.017v4.146H33.423c-0.743,0-1.346,0.601-1.346,1.344  c0,0.742,0.603,1.344,1.346,1.344h0.989L28.58,38.127c-0.021,0.062-0.012,0.127-0.017,0.191H28.54c0,0.021-0.007,0.04-0.007,0.061  C28.533,40.605,30.338,42.412,32.566,42.412z M69.583,37.593H59.301l5.096-15.14L69.583,37.593z M35.511,22.453l5.187,15.14H30.415  L35.511,22.453z M94.551,36.663c-0.694-0.641-2.176-1.507-3.602-1.113c-0.346,0.095-0.689,0.263-1.018,0.528  c-0.009,0.008-0.02,0.017-0.03,0.025c-0.322,0.263-0.688,0.605-1.085,1.016c-1.062-0.344-2.33-0.357-3.415,0.599  c-1.926,1.697-4.439,6.604-5.499,8.963c-0.266,0.589-0.604,1.269-0.977,1.971c-0.323,0.607-0.673,1.23-1.025,1.83  c-0.315,0.169-0.619,0.376-0.904,0.625c-1.23,1.085-2.575,3.257-3.766,5.172l-0.292,0.467c-2.03,2.305-4.509,3.088-6.45,3.512  c-2.306,0.504-6.556,2.472-8.581,4.253c-1.844,1.627-5.905,6.277-6.398,8.125c-0.091,0.339-0.212,0.714-0.353,1.15  c-0.192,0.599-0.429,1.333-0.683,2.28C50.321,76.64,50.162,77.292,50,78.04c-0.161-0.749-0.321-1.4-0.476-1.973  c-0.252-0.947-0.489-1.681-0.682-2.28c-0.14-0.436-0.261-0.811-0.352-1.15c-0.495-1.848-4.557-6.498-6.4-8.125  c-2.024-1.781-6.273-3.749-8.579-4.253c-1.942-0.424-4.423-1.208-6.452-3.512l-0.29-0.467c-1.189-1.916-2.537-4.087-3.767-5.172  c-0.284-0.25-0.589-0.456-0.902-0.625c-0.355-0.6-0.705-1.223-1.026-1.83c-0.375-0.703-0.714-1.382-0.979-1.971  c-1.058-2.359-3.57-7.266-5.497-8.963c-1.086-0.957-2.353-0.943-3.415-0.599c-0.396-0.41-0.761-0.753-1.085-1.016  c-0.008-0.009-0.021-0.018-0.028-0.025c-0.328-0.265-0.672-0.433-1.018-0.528c-1.428-0.394-2.909,0.472-3.601,1.113L5,37.078  l0.243,0.562c0.072,0.164,0.663,1.521,1.444,3.318c1.653,3.796,4.168,9.559,4.483,10.198c0.172,0.35,0.322,0.737,0.466,1.111  c0.234,0.61,0.458,1.186,0.781,1.637c0.418,0.577,4.328,6.717,4.752,7.418c0.089,0.148,0.24,0.565,0.372,0.934  c0.428,1.196,0.963,2.687,1.986,3.321c0.599,0.377,1.771,1.559,3.25,3.058c0.994,1.011,2.124,2.153,3.434,3.419  c1.487,1.435,2.923,2.504,4.189,3.451c1.698,1.265,3.038,2.267,3.929,3.655c0.46,0.716,0.605,2.676,0.57,5.095  c-0.016,1.175-0.073,2.489-0.164,3.794c0.585-0.042,29.941-0.042,30.528,0c-0.09-1.305-0.149-2.619-0.167-3.794  c-0.034-2.419,0.112-4.379,0.572-5.095c0.891-1.388,2.232-2.39,3.93-3.655c1.266-0.947,2.701-2.017,4.188-3.451  c1.312-1.266,2.442-2.408,3.435-3.419c1.479-1.499,2.648-2.681,3.25-3.058c1.022-0.635,1.557-2.125,1.985-3.321  c0.132-0.369,0.282-0.786,0.373-0.934c0.422-0.701,4.334-6.841,4.75-7.418c0.324-0.452,0.547-1.027,0.781-1.637  c0.146-0.375,0.295-0.762,0.469-1.111c0.312-0.639,2.83-6.401,4.482-10.198c0.779-1.797,1.373-3.155,1.442-3.318L95,37.078  L94.551,36.663z M13.459,39.011c1.365,1.204,3.337,4.757,4.566,7.31c0.185,0.381,0.352,0.742,0.498,1.066  c0.312,0.697,0.751,1.567,1.246,2.477l-2.882-3.247c-0.111-0.163-0.224-0.33-0.343-0.503c-0.185-0.569-0.397-1.12-0.623-1.66  c-0.956-2.287-2.225-4.297-3.435-5.826C12.82,38.639,13.156,38.745,13.459,39.011z M48.98,86.18h-12.4  c0.033-0.858,0.052-1.718,0.049-2.478c-0.009-2.41-0.228-4.504-0.848-5.47c-1.06-1.654-2.586-2.791-4.351-4.107  c-1.225-0.916-2.613-1.95-4.021-3.31c-1.296-1.25-2.417-2.386-3.406-3.387c-1.681-1.704-2.792-2.83-3.564-3.311  c-0.512-0.32-0.991-1.648-1.276-2.443c-0.19-0.53-0.34-0.946-0.517-1.241c-0.448-0.74-4.381-6.914-4.828-7.537  c-0.196-0.271-0.378-0.746-0.574-1.251c-0.158-0.408-0.323-0.832-0.526-1.248c-0.302-0.614-2.961-6.706-4.913-11.192  c-0.249-0.573-0.486-1.12-0.708-1.627c0.498-0.309,1.286-0.646,1.888-0.158c0.019,0.014,0.04,0.033,0.058,0.049  c0.166,0.138,0.346,0.298,0.54,0.486c0.193,0.186,0.396,0.396,0.608,0.628c0.185,0.2,0.374,0.419,0.569,0.651  c0.597,0.717,1.23,1.579,1.84,2.549c0.91,1.45,1.761,3.146,2.343,4.975l0.037,0.119l0.071,0.102c1.229,1.82,2.091,3.007,2.681,3.776  c-0.108,0.087-0.213,0.178-0.312,0.277c-1.45,1.456-1.018,2.524,1.474,6.437c0.404,0.752,0.664,1.383,0.873,1.894  c0.137,0.334,0.256,0.624,0.386,0.882c0.095,0.188,0.195,0.48,0.291,0.763c0.2,0.594,0.39,1.157,0.756,1.502  c0.055,0.053,0.159,0.144,0.313,0.282c2.249,2.012,3.605,3.394,4.036,4.114c0.892,1.485,2.641,3.019,2.713,3.084l1.133-1.3  c-0.02-0.017-1.28-1.125-2.087-2.248c-0.103-0.14-0.197-0.282-0.281-0.422c-0.694-1.161-2.697-3.021-4.366-4.513  c-0.116-0.105-0.217-0.194-0.263-0.238c-0.088-0.121-0.235-0.553-0.324-0.814c-0.114-0.339-0.233-0.692-0.384-0.99  c-0.099-0.198-0.206-0.458-0.331-0.757c-0.226-0.552-0.508-1.239-0.959-2.08L20.386,56.6l-0.017-0.027  c-2.356-3.695-2.186-3.866-1.729-4.324c0.063-0.066,0.13-0.124,0.199-0.177c0.044-0.032,0.088-0.062,0.131-0.091  c0.193-0.125,0.397-0.21,0.608-0.26c0.431-0.1,0.886-0.052,1.315,0.103c0.354,0.128,0.686,0.329,0.97,0.579  c0.566,0.498,1.219,1.362,1.867,2.323c0.543,0.804,1.085,1.678,1.573,2.463l0.334,0.537l0.036,0.059  c-0.001,0,0.044,0.052,0.044,0.052c2.396,2.75,5.386,3.66,7.426,4.108c2.059,0.448,6.002,2.273,7.807,3.862  c1.952,1.719,5.55,6.06,5.872,7.274c0.104,0.383,0.23,0.779,0.379,1.237c0.248,0.77,0.546,1.699,0.86,2.982  c0.263,1.079,0.538,2.406,0.803,4.109c0.038,0.253,0.077,0.558,0.114,0.902V86.18z M81.475,47.386  c0.146-0.324,0.315-0.685,0.498-1.066c1.231-2.553,3.203-6.105,4.567-7.31c0.302-0.266,0.639-0.372,0.972-0.384  c-1.208,1.529-2.478,3.54-3.435,5.826c-0.225,0.54-0.438,1.091-0.625,1.66c-0.118,0.174-0.229,0.341-0.342,0.503l-2.881,3.247  C80.725,48.953,81.165,48.083,81.475,47.386z M92.194,39.204c-1.95,4.487-4.611,10.578-4.912,11.192  c-0.205,0.416-0.368,0.84-0.527,1.248c-0.195,0.505-0.379,0.98-0.572,1.251c-0.449,0.623-4.382,6.797-4.832,7.537  c-0.176,0.295-0.326,0.711-0.516,1.241c-0.285,0.795-0.761,2.123-1.274,2.443c-0.774,0.481-1.886,1.606-3.565,3.311  c-0.989,1.001-2.109,2.137-3.407,3.387c-1.408,1.36-2.797,2.394-4.021,3.31c-1.767,1.317-3.291,2.454-4.35,4.107  c-0.622,0.966-0.841,3.061-0.848,5.47c-0.005,0.76,0.015,1.62,0.047,2.478H51.018v-3.87c0.037-0.344,0.076-0.649,0.116-0.902  c0.263-1.703,0.539-3.03,0.802-4.109c0.315-1.283,0.612-2.212,0.862-2.982c0.149-0.458,0.274-0.854,0.376-1.237  c0.324-1.214,3.918-5.555,5.873-7.274c1.805-1.589,5.749-3.415,7.806-3.862c2.041-0.448,5.031-1.357,7.427-4.108  c0,0,0.045-0.052,0.043-0.052l0.039-0.059l0.333-0.537c0.487-0.785,1.029-1.659,1.572-2.463c0.65-0.961,1.303-1.825,1.87-2.323  c0.281-0.25,0.616-0.45,0.969-0.579c0.428-0.155,0.883-0.203,1.312-0.103c0.212,0.05,0.418,0.135,0.61,0.26  c0.043,0.029,0.087,0.06,0.132,0.091c0.068,0.054,0.136,0.111,0.199,0.177c0.457,0.458,0.627,0.628-1.73,4.324L79.612,56.6  l-0.013,0.028c-0.453,0.841-0.734,1.528-0.961,2.08c-0.125,0.299-0.229,0.559-0.331,0.757c-0.15,0.298-0.267,0.651-0.382,0.99  c-0.09,0.261-0.235,0.693-0.322,0.814c-0.048,0.044-0.148,0.133-0.264,0.238c-1.669,1.492-3.674,3.352-4.366,4.513  c-0.084,0.141-0.18,0.282-0.28,0.422c-0.807,1.122-2.069,2.23-2.088,2.248l1.131,1.3c0.072-0.066,1.824-1.599,2.717-3.084  c0.43-0.72,1.787-2.102,4.035-4.114c0.155-0.138,0.257-0.229,0.312-0.282c0.366-0.345,0.557-0.908,0.758-1.502  c0.096-0.283,0.194-0.575,0.29-0.763c0.129-0.259,0.249-0.548,0.384-0.882c0.211-0.51,0.472-1.142,0.875-1.894  c2.491-3.912,2.925-4.98,1.473-6.437c-0.099-0.099-0.203-0.189-0.312-0.277c0.592-0.769,1.455-1.957,2.683-3.776l0.07-0.102  l0.038-0.119c0.583-1.829,1.433-3.524,2.342-4.975c0.609-0.97,1.245-1.832,1.839-2.549c0.195-0.231,0.387-0.451,0.571-0.651  c0.211-0.232,0.414-0.442,0.606-0.628c0.195-0.188,0.375-0.349,0.542-0.486c0.019-0.016,0.04-0.035,0.057-0.049  c0.603-0.487,1.391-0.151,1.889,0.158C92.683,38.084,92.444,38.631,92.194,39.204z"/></svg>